<?xml version="1.0" encoding="iso-8859-1"?>
<!-- Generator: Adobe Illustrator 19.0.0, SVG Export Plug-In . SVG Version: 6.00 Build 0)  -->
<svg version="1.1" id="Layer_1" xmlns="http://www.w3.org/2000/svg" xmlns:xlink="http://www.w3.org/1999/xlink" x="0px" y="0px"
	 viewBox="0 0 511.999 511.999" style="enable-background:new 0 0 511.999 511.999;" xml:space="preserve">
<path style="fill:#FFDB6C;" d="M168.704,100.589L48.614,46.86c-8.859-3.963-19.254,0.005-23.217,8.864l0,0
	c-3.963,8.859,0.005,19.254,8.864,23.217l120.658,53.978"/>
<path style="fill:#FFB966;" d="M159.313,121.554L38.655,67.576c-6.611-2.958-10.494-9.497-10.394-16.307
	c-1.146,1.299-2.118,2.791-2.863,4.455c-3.963,8.859,0.005,19.254,8.864,23.217l120.659,53.978l13.784-32.331l-0.38-0.17
	L159.313,121.554z"/>
<path style="fill:#FFDB6C;" d="M343.296,55.264l120.09-53.728c8.859-3.963,19.254,0.005,23.217,8.864l0,0
	c3.963,8.859-0.005,19.254-8.864,23.217L357.081,87.605"/>
<path style="fill:#FFB966;" d="M486.603,10.4c-0.988-2.206-2.373-4.108-4.036-5.661c0.09,6.802-3.79,13.329-10.394,16.284
	L351.681,74.937l5.399,12.668l120.658-53.988C486.598,29.654,490.566,19.259,486.603,10.4z"/>
<rect x="59.221" y="250.843" style="fill:#FFDB6C;" width="392.841" height="209.618"/>
<g>
	<rect x="59.221" y="436.913" style="fill:#FFB966;" width="392.841" height="23.547"/>
	<path style="fill:#FFB966;" d="M408.33,250.84H59.221v24.661h164.157c102.146,0,184.952,82.806,184.952,184.952l0,0h43.736V275.502
		V250.84L408.33,250.84L408.33,250.84z"/>
</g>
<g>
	<rect x="372.586" y="250.843" style="fill:#FC4C59;" width="17.573" height="209.618"/>
	<rect x="121.122" y="250.843" style="fill:#FC4C59;" width="17.573" height="209.618"/>
	<rect x="243.849" y="250.843" style="fill:#FC4C59;" width="17.573" height="209.618"/>
</g>
<path style="fill:#3CC247;" d="M438.195,353.448l-55.507-32.342c-0.817-0.476-1.823-0.49-2.652-0.035l-59.07,32.342
	c-1.869,1.023-1.869,3.708,0,4.731l59.07,32.342c0.829,0.455,1.836,0.44,2.652-0.035l55.507-32.342
	C439.98,357.067,439.98,354.487,438.195,353.448z"/>
<path style="fill:#2DA85F;" d="M357.687,333.307c14.231,15.028,25.968,32.441,34.545,51.58l45.963-26.781
	c1.785-1.04,1.785-3.62,0-4.66l-55.507-32.342c-0.817-0.476-1.823-0.49-2.652-0.035L357.687,333.307z"/>
<g>
	<path style="fill:#3CC247;" d="M129.373,390.46l56.523-32.343c1.81-1.036,1.81-3.646,0-4.681l-56.523-32.343
		c-0.819-0.469-1.824-0.476-2.649-0.016L68.493,353.42c-1.85,1.027-1.85,3.688,0,4.715l58.232,32.343
		C127.549,390.935,128.554,390.929,129.373,390.46z"/>
	<path style="fill:#3CC247;" d="M253.243,390.491l59.081-32.348c1.869-1.023,1.869-3.708,0-4.731l-59.081-32.348
		c-0.822-0.45-1.821-0.44-2.635,0.025l-56.532,32.348c-1.81,1.036-1.81,3.646,0,4.681l56.532,32.348
		C251.423,390.931,252.421,390.941,253.243,390.491z"/>
</g>
<g>
	<circle style="fill:#FC4C59;" cx="192.01" cy="129.638" r="37.234"/>
	<circle style="fill:#FC4C59;" cx="319.985" cy="84.311" r="37.234"/>
</g>
<g>
	<path style="fill:#E83A64;" d="M228.343,126.898c-8.397,18.771-30.423,27.18-49.194,18.782
		c-12.423-5.558-20.3-17.084-21.778-29.686c-7.267,18.414,1.183,39.462,19.435,47.628c18.771,8.399,40.795-0.011,49.194-18.782
		c2.841-6.348,3.752-13.068,2.997-19.508C228.789,125.857,228.575,126.379,228.343,126.898z"/>
	<path style="fill:#E83A64;" d="M337.537,100.355c-18.771,8.399-40.795-0.011-49.194-18.782c-1.587-3.548-2.573-7.214-3.003-10.882
		c-3.53,8.982-3.593,19.319,0.66,28.824c8.399,18.771,30.423,27.18,49.194,18.782c15.221-6.81,23.627-22.582,21.784-38.312
		C353.537,88.742,346.802,96.211,337.537,100.355z"/>
</g>
<path style="fill:#7C54B8;" d="M462.122,199.294H48.809c-8.798,0-15.93,7.132-15.93,15.93v20.857c0,8.798,7.132,15.93,15.93,15.93
	h413.312c8.798,0,15.93-7.132,15.93-15.93v-20.857C478.052,206.426,470.92,199.294,462.122,199.294z"/>
<path style="fill:#674799;" d="M462.3,199.294h-45.299c8.798,0,15.93,7.132,15.93,15.93v20.857c0,8.798-7.132,15.93-15.93,15.93
	H462.3c8.798,0,15.93-7.132,15.93-15.93v-20.857C478.23,206.426,471.098,199.294,462.3,199.294z"/>
<path style="fill:#7C54B8;" d="M462.122,459.282H48.809c-8.798,0-15.93,7.132-15.93,15.93v20.857c0,8.798,7.132,15.93,15.93,15.93
	h413.312c8.798,0,15.93-7.132,15.93-15.93v-20.858C478.052,466.414,470.92,459.282,462.122,459.282z"/>
<path style="fill:#674799;" d="M462.3,459.282h-45.299c8.798,0,15.93,7.132,15.93,15.93v20.857c0,8.798-7.132,15.93-15.93,15.93
	H462.3c8.798,0,15.93-7.132,15.93-15.93v-20.858C478.23,466.414,471.098,459.282,462.3,459.282z"/>
<g>
</g>
<g>
</g>
<g>
</g>
<g>
</g>
<g>
</g>
<g>
</g>
<g>
</g>
<g>
</g>
<g>
</g>
<g>
</g>
<g>
</g>
<g>
</g>
<g>
</g>
<g>
</g>
<g>
</g>
</svg>
