<svg xmlns="http://www.w3.org/2000/svg" version="1.1" xmlns:xlink="http://www.w3.org/1999/xlink" xmlns:svgjs="http://svgjs.com/svgjs" width="1920" height="1200" preserveAspectRatio="none" viewBox="0 0 1920 1200"><g mask="url(&quot;#SvgjsMask1030&quot;)" fill="none"><rect width="1920" height="1200" x="0" y="0" fill="rgba(51, 30, 56, 1)"></rect><path d="M0 0L197.18 0L0 127.07z" fill="rgba(255, 255, 255, .1)"></path><path d="M0 127.07L197.18 0L295.27 0L0 326.83z" fill="rgba(255, 255, 255, .075)"></path><path d="M0 326.83L295.27 0L529.1899999999999 0L0 719.8z" fill="rgba(255, 255, 255, .05)"></path><path d="M0 719.8L529.1899999999999 0L1462.83 0L0 898.3599999999999z" fill="rgba(255, 255, 255, .025)"></path><path d="M1920 1200L1863.95 1200L1920 748.25z" fill="rgba(0, 0, 0, .1)"></path><path d="M1920 748.25L1863.95 1200L1053.71 1200L1920 636.2z" fill="rgba(0, 0, 0, .075)"></path><path d="M1920 636.2L1053.71 1200L443.1500000000001 1200L1920 294.61000000000007z" fill="rgba(0, 0, 0, .05)"></path><path d="M1920 294.6100000000001L443.1500000000001 1200L366.1400000000001 1200L1920 193.84000000000015z" fill="rgba(0, 0, 0, .025)"></path></g><defs><mask id="SvgjsMask1030"><rect width="1920" height="1200" fill="#ffffff"></rect></mask></defs></svg>