<svg xmlns="http://www.w3.org/2000/svg" version="1.1" xmlns:xlink="http://www.w3.org/1999/xlink" xmlns:svgjs="http://svgjs.com/svgjs" width="1920" height="1200" preserveAspectRatio="none" viewBox="0 0 1920 1200"><g mask="url(&quot;#SvgjsMask1172&quot;)" fill="none"><rect width="1920" height="1200" x="0" y="0" fill="url(#SvgjsRadialGradient1173)"></rect><path d="M0 0L270.82 0L0 590.28z" fill="rgba(255, 255, 255, .1)"></path><path d="M0 590.28L270.82 0L823.4200000000001 0L0 681.61z" fill="rgba(255, 255, 255, .075)"></path><path d="M0 681.61L823.4200000000001 0L1313.13 0L0 1003.27z" fill="rgba(255, 255, 255, .05)"></path><path d="M0 1003.27L1313.13 0L1531.91 0L0 1034.99z" fill="rgba(255, 255, 255, .025)"></path><path d="M1920 1200L1808.02 1200L1920 1004.66z" fill="rgba(0, 0, 0, .1)"></path><path d="M1920 1004.66L1808.02 1200L1598.76 1200L1920 993.9399999999999z" fill="rgba(0, 0, 0, .075)"></path><path d="M1920 993.94L1598.76 1200L1353.84 1200L1920 629.47z" fill="rgba(0, 0, 0, .05)"></path><path d="M1920 629.47L1353.8400000000001 1200L717.0600000000002 1200L1920 468.30000000000007z" fill="rgba(0, 0, 0, .025)"></path></g><defs><mask id="SvgjsMask1172"><rect width="1920" height="1200" fill="#ffffff"></rect></mask><radialGradient cx="50%" cy="100%" r="1536.75" gradientUnits="userSpaceOnUse" id="SvgjsRadialGradient1173"><stop stop-color="#0e2a47" offset="0"></stop><stop stop-color="rgba(64, 224, 208, 1)" offset="1"></stop></radialGradient></defs></svg>