<?xml version="1.0" encoding="iso-8859-1"?>
<!-- Generator: Adobe Illustrator 19.0.0, SVG Export Plug-In . SVG Version: 6.00 Build 0)  -->
<svg version="1.1" id="Layer_1" xmlns="http://www.w3.org/2000/svg" xmlns:xlink="http://www.w3.org/1999/xlink" x="0px" y="0px"
	 viewBox="0 0 512.001 512.001" style="enable-background:new 0 0 512.001 512.001;" xml:space="preserve">
<path style="fill:#F95428;" d="M269.979,242.025c3.58,3.58,5.79,8.518,5.79,13.974c0,5.469-2.21,10.407-5.79,13.986
	c-3.58,3.58-8.518,5.79-13.974,5.79c-5.456,0-10.407-2.21-13.986-5.79c-3.58-3.58-5.79-8.518-5.79-13.986
	c0-5.456,2.21-10.407,5.79-13.986c3.58-3.58,8.53-5.79,13.986-5.79C261.461,236.223,266.411,238.445,269.979,242.025z"/>
<path style="fill:#9AD14B;" d="M256.005,9.255c136.272,0,246.732,110.472,246.732,246.745s-110.46,246.745-246.732,246.745
	S9.26,392.272,9.26,255.999S119.732,9.255,256.005,9.255z M458.334,255.999c0-111.744-90.585-202.341-202.329-202.341
	c-111.756,0-202.341,90.597-202.341,202.341S144.249,458.34,256.005,458.34C367.749,458.34,458.334,367.743,458.334,255.999z"/>
<path style="fill:#F7B239;" d="M242.018,269.986c3.58,3.58,8.53,5.79,13.986,5.79c5.456,0,10.394-2.21,13.974-5.79
	c3.58-3.58,5.79-8.518,5.79-13.986c0-5.456-2.21-10.394-5.79-13.974c-3.568-3.58-8.518-5.802-13.974-5.802
	c-5.456,0-10.407,2.21-13.986,5.79c-3.58,3.58-5.79,8.53-5.79,13.986C236.229,261.468,238.439,266.406,242.018,269.986z
	 M256.005,53.658c111.744,0,202.329,90.597,202.329,202.341S367.749,458.34,256.005,458.34
	c-111.756,0-202.341-90.597-202.341-202.341S144.249,53.658,256.005,53.658z"/>
<path style="fill:#E09B2D;" d="M96.251,255.999c0-104.552,79.302-190.585,181.046-201.227c-6.998-0.732-14.1-1.113-21.292-1.113
	c-111.756,0-202.341,90.597-202.341,202.341S144.249,458.34,256.005,458.34c7.192,0,14.294-0.381,21.292-1.113
	C175.552,446.585,96.251,360.551,96.251,255.999z"/>
<g>
	<path style="fill:#333333;" d="M256,44.405c-116.674,0-211.594,94.922-211.594,211.594S139.326,467.594,256,467.594
		s211.595-94.922,211.595-211.594S372.674,44.405,256,44.405z M256,449.078c-106.464,0-193.078-86.615-193.078-193.078
		S149.537,62.922,256,62.922s193.078,86.615,193.078,193.078S362.464,449.078,256,449.078z"/>
	<path style="fill:#333333;" d="M256,0C114.842,0,0.001,114.841,0.001,256.001S114.842,512.001,256,512.001
		c141.16,0,256.001-114.841,256.001-256.001S397.16,0,256,0z M256,493.483c-130.948,0-237.482-106.534-237.482-237.482
		S125.052,18.517,256,18.517c130.949,0,237.484,106.534,237.484,237.484S386.949,493.483,256,493.483z"/>
	<path style="fill:#333333;" d="M345.981,152.929l-77.076,77.076c-3.89-1.939-8.27-3.036-12.904-3.036
		c-4.632,0-9.009,1.096-12.899,3.033L200.34,187.24c-3.615-3.616-9.477-3.616-13.093,0c-3.616,3.616-3.616,9.477,0,13.093
		l42.761,42.761c-1.939,3.89-3.037,8.271-3.037,12.905c0,4.633,1.097,9.014,3.036,12.904l-1.609,1.609
		c-3.616,3.616-3.616,9.477,0,13.093c1.807,1.808,4.177,2.712,6.546,2.712s4.739-0.904,6.546-2.712l1.609-1.608
		c3.889,1.938,8.268,3.034,12.9,3.034c4.63,0,9.009-1.096,12.898-3.033l1.607,1.607c1.807,1.808,4.177,2.712,6.546,2.712
		s4.739-0.904,6.546-2.712c3.616-3.616,3.616-9.477,0-13.093l-1.605-1.605c1.939-3.891,3.037-8.272,3.037-12.906
		c0-4.632-1.096-9.012-3.034-12.9l77.077-77.077c3.616-3.616,3.616-9.477,0-13.093C355.458,149.313,349.596,149.313,345.981,152.929
		z M245.487,256.001c0-5.797,4.716-10.514,10.513-10.514c5.797,0,10.514,4.717,10.514,10.514c0,5.797-4.716,10.513-10.514,10.513
		C250.204,266.513,245.487,261.798,245.487,256.001z"/>
	<path style="fill:#333333;" d="M256,108.482c5.113,0,9.258-4.145,9.258-9.258V80.294c0-5.113-4.145-9.258-9.258-9.258
		c-5.113,0-9.258,4.145-9.258,9.258v18.928C246.742,104.337,250.887,108.482,256,108.482z"/>
	<path style="fill:#333333;" d="M256,403.519c-5.113,0-9.258,4.145-9.258,9.258v18.928c0,5.113,4.145,9.258,9.258,9.258
		c5.113,0,9.258-4.145,9.258-9.258v-18.928C265.258,407.664,261.114,403.519,256,403.519z"/>
	<path style="fill:#333333;" d="M169.594,124.856c1.715,2.97,4.827,4.63,8.026,4.63c1.57,0,3.163-0.4,4.621-1.242
		c4.428-2.557,5.945-8.219,3.389-12.647l-9.465-16.392c-2.557-4.429-8.219-5.945-12.647-3.389s-5.945,8.219-3.389,12.647
		L169.594,124.856z"/>
	<path style="fill:#333333;" d="M342.408,387.144c-2.557-4.429-8.222-5.945-12.647-3.389c-4.428,2.557-5.945,8.219-3.389,12.647
		l9.465,16.392c1.715,2.97,4.827,4.63,8.026,4.63c1.57,0,3.164-0.4,4.621-1.242c4.428-2.557,5.945-8.219,3.389-12.647
		L342.408,387.144z"/>
	<path style="fill:#333333;" d="M124.858,169.594l-16.392-9.465c-4.428-2.558-10.09-1.039-12.647,3.389
		c-2.557,4.428-1.039,10.09,3.389,12.647l16.392,9.465c1.458,0.842,3.05,1.242,4.621,1.242c3.2,0,6.312-1.66,8.026-4.63
		C130.803,177.813,129.286,172.151,124.858,169.594z"/>
	<path style="fill:#333333;" d="M412.795,335.835l-16.392-9.465c-4.429-2.558-10.091-1.039-12.647,3.389
		c-2.557,4.428-1.039,10.091,3.389,12.647l16.392,9.465c1.458,0.842,3.05,1.242,4.621,1.242c3.2,0,6.312-1.66,8.027-4.63
		C418.741,344.054,417.223,338.391,412.795,335.835z"/>
	<path style="fill:#333333;" d="M431.706,246.742h-18.928c-5.113,0-9.258,4.145-9.258,9.258c0,5.113,4.145,9.258,9.258,9.258h18.928
		c5.113,0,9.258-4.145,9.258-9.258C440.965,250.887,436.819,246.742,431.706,246.742z"/>
	<path style="fill:#333333;" d="M108.482,256.001c0-5.113-4.145-9.258-9.258-9.258H80.295c-5.113,0-9.258,4.145-9.258,9.258
		c0,5.113,4.145,9.258,9.258,9.258h18.928C104.337,265.259,108.482,261.114,108.482,256.001z"/>
	<path style="fill:#333333;" d="M391.782,186.872c1.57,0,3.163-0.4,4.621-1.242l16.392-9.465c4.428-2.557,5.945-8.219,3.389-12.647
		c-2.557-4.429-8.218-5.945-12.647-3.389l-16.392,9.465c-4.428,2.557-5.945,8.219-3.389,12.647
		C385.471,185.212,388.583,186.872,391.782,186.872z"/>
	<path style="fill:#333333;" d="M115.6,326.371l-16.392,9.465c-4.428,2.557-5.945,8.219-3.389,12.647
		c1.715,2.97,4.827,4.63,8.026,4.63c1.57,0,3.163-0.4,4.621-1.242l16.392-9.465c4.428-2.557,5.945-8.219,3.389-12.647
		C125.69,325.331,120.026,323.815,115.6,326.371z"/>
	<path style="fill:#333333;" d="M329.759,128.245c1.458,0.842,3.05,1.242,4.621,1.242c3.2,0,6.312-1.66,8.027-4.63l9.465-16.392
		c2.557-4.428,1.039-10.091-3.389-12.647c-4.429-2.557-10.091-1.039-12.647,3.389l-9.465,16.392
		C323.814,120.026,325.331,125.688,329.759,128.245z"/>
	<path style="fill:#333333;" d="M182.241,383.755c-4.429-2.558-10.091-1.041-12.647,3.389l-9.465,16.392
		c-2.557,4.428-1.039,10.091,3.389,12.647c1.458,0.842,3.05,1.242,4.621,1.242c3.2,0,6.312-1.66,8.026-4.63l9.465-16.392
		C188.187,391.974,186.67,386.311,182.241,383.755z"/>
</g>
<g>
	<path style="fill:#FFFFFF;" d="M354.99,405.213c-2.9,0-5.754-1.358-7.56-3.902c-2.958-4.17-1.976-9.95,2.195-12.909
		c42.947-30.467,68.588-79.962,68.588-132.402c0-69.502-44.253-131.246-110.118-153.643c-4.842-1.646-7.431-6.906-5.785-11.746
		c1.646-4.84,6.907-7.43,11.746-5.785c73.374,24.951,122.674,93.74,122.674,171.174c0,58.431-28.557,113.572-76.391,147.506
		C358.714,404.657,356.842,405.213,354.99,405.213z"/>
	<circle style="fill:#FFFFFF;" cx="281.52" cy="86.412" r="9.258"/>
</g>
<g>
</g>
<g>
</g>
<g>
</g>
<g>
</g>
<g>
</g>
<g>
</g>
<g>
</g>
<g>
</g>
<g>
</g>
<g>
</g>
<g>
</g>
<g>
</g>
<g>
</g>
<g>
</g>
<g>
</g>
</svg>
